<?xml version='1.0' encoding='utf-8'?>
<svg xmlns="http://www.w3.org/2000/svg" width="600px" height="400px" style="shape-rendering:geometricPrecision; text-rendering:geometricPrecision; image-rendering:optimizeQuality; fill-rule:evenodd; clip-rule:evenodd" viewBox="0 0 600 399.999"> <defs> <style type="text/css">  .fil0 {fill:white} .fil4 {fill:url(#id0);fill-rule:nonzero} .fil3 {fill:url(#id1);fill-rule:nonzero} .fil1 {fill:url(#id2);fill-rule:nonzero} .fil2 {fill:url(#id3);fill-rule:nonzero}  </style> <linearGradient id="id0" gradientUnits="userSpaceOnUse" x1="312.797" y1="302.986" x2="312.797" y2="204.52"> <stop offset="0" style="stop-color:#990000"/> <stop offset="0.188235" style="stop-color:red"/> <stop offset="0.478431" style="stop-color:red"/> <stop offset="1" style="stop-color:#5C0909"/> </linearGradient> <linearGradient id="id1" gradientUnits="userSpaceOnUse" x1="223.769" y1="212.797" x2="305.402" y2="212.797"> <stop offset="0" style="stop-color:#336699"/> <stop offset="0.188235" style="stop-color:#00BDF7"/> <stop offset="0.478431" style="stop-color:#00BDF7"/> <stop offset="1" style="stop-color:#32296C"/> </linearGradient> <linearGradient id="id2" gradientUnits="userSpaceOnUse" x1="407.923" y1="163.925" x2="304.064" y2="163.925"> <stop offset="0" style="stop-color:#006633"/> <stop offset="0.188235" style="stop-color:#99CC33"/> <stop offset="0.478431" style="stop-color:#99CC33"/> <stop offset="1" style="stop-color:#003333"/> </linearGradient> <linearGradient id="id3" gradientUnits="userSpaceOnUse" x1="264.007" y1="92.8299" x2="262.512" y2="194.667"> <stop offset="0" style="stop-color:#CC3300"/> <stop offset="0.188235" style="stop-color:#FFCC00"/> <stop offset="0.478431" style="stop-color:#FFCC00"/> <stop offset="1" style="stop-color:#CC3300"/> </linearGradient> </defs> <g id="Layer_x0020_1"> <metadata id="CorelCorpID_0Corel-Layer"/> <rect class="fil0" width="600" height="399.999"/> <path class="fil1" d="M410.999 233.714l0.0011811 -6.02953 -0.0011811 -0.00944882 0.0011811 0 0 -20.478 0 -10.9512 0 -9.89646 -0.0011811 -31.4303 0 -0.0011811 0.0011811 -0.00826772 0 -6.02953c-0.672047,-10.8579 -5.00197,-20.2642 -12.9591,-28.2213 -8.68583,-8.68583 -19.102,-13.0512 -31.2449,-13.0512l-31.3358 0 -31.3346 0c-12.1441,0 -22.5591,4.36417 -31.2461,13.0512 -8.68701,8.68701 -13.0512,19.1031 -13.0512,31.2461l0 0c0,8.64449 2.24764,16.4232 6.69803,23.4236 11.5843,18.0437 24.7406,17.5252 44.0232,22.3843 37.324,9.40748 68.0492,26.9232 85.3287,46.4315 2.03031,2.77913 3.16181,5.08937 3.16181,9.10394 0,4.01575 -2.46142,9.9189 -6.64843,13.5484l0 0c1.95709,-1.43386 3.84094,-3.05433 5.64921,-4.86142 2.23701,-2.23701 4.18701,-4.58858 5.84882,-7.05354l0.0614173 -0.0897638 0.124016 -0.187795 0.0129921 -0.0188976 0.111024 -0.168898 0.0850394 -0.12874 0.0377953 -0.0602362 0.121654 -0.187795 0.0318898 -0.0507874 0.0897638 -0.13937 0.100394 -0.159449 0.0188976 -0.0307087 0.11811 -0.190157 0.0496063 -0.0791339 0.0685039 -0.111024 0.115748 -0.191339 0 -0.0011811 0.115748 -0.190157 0.0661417 -0.111024 0.0472441 -0.0814961 0.113386 -0.19252 0.0177165 -0.0295276 0.0944882 -0.162992 0.0814961 -0.141732 0.0283465 -0.0507874 0.111024 -0.193701 0.034252 -0.0625984 0.0732283 -0.132283 0.0968504 -0.173622 0.0106299 -0.0212598 0.106299 -0.194882 0.0507874 -0.092126 0.0543307 -0.102756 0.105118 -0.196063 0.00472441 -0.0106299 0.0980315 -0.186614 0.0649606 -0.124016 0.0366142 -0.0720472 0.100394 -0.197244 0.0224409 -0.0425197 0.0779528 -0.155906c2.53346,-5.05394 3.98504,-10.5402 4.35,-16.4539z"/> <path class="fil2" d="M333.713 88.9996l-6.02835 0 -0.00944882 0 0 0 -20.4791 0 -10.9512 0 -9.89646 0 -31.4303 0 0 0 -0.00944882 0 -6.02835 0c-10.8579,0.670866 -20.2642,5.00197 -28.2213,12.9579 -8.68701,8.68701 -13.0512,19.102 -13.0512,31.2461l0 31.3346 0 31.3358c-0.0011811,12.1441 4.36417,22.5591 13.0512,31.2461 8.68701,8.68583 19.102,13.0512 31.2461,13.0512l0 0c8.64331,0 16.422,-2.24764 23.4236,-6.69921 18.0425,-11.5831 17.524,-24.7406 22.3843,-44.0232 9.40748,-37.3228 26.922,-68.048 46.4315,-85.3276 2.77795,-2.0315 5.08937,-3.16181 9.10394,-3.16299 4.01575,0.0011811 9.91772,2.4626 13.5472,6.64961l0 0c-1.43386,-1.95827 -3.05315,-3.84213 -4.86142,-5.65039 -2.23701,-2.23583 -4.58858,-4.18701 -7.05354,-5.84882l-0.0897638 -0.0602362 -0.187795 -0.125197 -0.0188976 -0.0129921 -0.168898 -0.111024 -0.127559 -0.0838583 -0.0602362 -0.0389764 -0.188976 -0.121654 -0.0496063 -0.0307087 -0.140551 -0.0909449 -0.159449 -0.0992126 -0.0295276 -0.0200787 -0.190157 -0.11811 -0.080315 -0.0496063 -0.111024 -0.0673228 -0.190157 -0.116929 -0.0011811 0 -0.191339 -0.114567 -0.111024 -0.0661417 -0.080315 -0.0484252 -0.19252 -0.112205 -0.0307087 -0.0188976 -0.161811 -0.0944882 -0.142913 -0.0814961 -0.0507874 -0.0283465 -0.193701 -0.111024 -0.0614173 -0.0330709 -0.132283 -0.0744094 -0.174803 -0.0968504 -0.0212598 -0.0106299 -0.193701 -0.106299 -0.0933071 -0.0507874 -0.102756 -0.0543307 -0.196063 -0.103937 -0.00944882 -0.00590551 -0.186614 -0.0968504 -0.125197 -0.0649606 -0.0708661 -0.0377953 -0.198425 -0.100394 -0.0425197 -0.0212598 -0.154724 -0.0791339c-5.05512,-2.53346 -10.5402,-3.98504 -16.4551,-4.35z"/> <path class="fil3" d="M189 166.286l0 6.02835 0.0011811 0.00944882 -0.0011811 0 0 20.4791 0 10.9512 0 9.89646 0 31.4303 0.0011811 0 -0.0011811 0.00944882 0 6.02953c0.672047,10.8567 5.00197,20.2642 12.9591,28.2201 8.68583,8.68701 19.1008,13.0512 31.2449,13.0512l31.3358 0 31.3346 0c12.1441,0 22.5591,-4.36417 31.2461,-13.0512 8.68583,-8.68701 13.0512,-19.102 13.0512,-31.2461l0 0c0,-8.64331 -2.24764,-16.422 -6.69921,-23.4236 -11.5831,-18.0425 -24.7406,-17.524 -44.0232,-22.3843 -37.3228,-9.40748 -68.048,-26.9232 -85.3276,-46.4315 -2.03031,-2.77913 -3.16181,-5.08937 -3.16181,-9.10394 0,-4.01575 2.46142,-9.91772 6.64843,-13.5472l0 0c-1.95827,1.43268 -3.84213,3.05315 -5.64921,4.86142 -2.23701,2.23701 -4.18701,4.5874 -5.85,7.05354l-0.0602362 0.0897638 -0.125197 0.187795 -0.0129921 0.0177165 -0.111024 0.170079 -0.0838583 0.127559 -0.0377953 0.0602362 -0.122835 0.188976 -0.0307087 0.0496063 -0.0897638 0.13937 -0.100394 0.159449 -0.0188976 0.0307087 -0.119291 0.190157 -0.0496063 0.080315 -0.0673228 0.109843 -0.116929 0.191339 0 0 -0.114567 0.19252 -0.0661417 0.111024 -0.0472441 0.080315 -0.113386 0.19252 -0.0177165 0.0295276 -0.0944882 0.162992 -0.0814961 0.142913 -0.0295276 0.0507874 -0.109843 0.193701 -0.034252 0.0614173 -0.0732283 0.132283 -0.0968504 0.174803 -0.011811 0.0200787 -0.106299 0.194882 -0.0496063 0.0933071 -0.0555118 0.102756 -0.103937 0.194882 -0.00590551 0.011811 -0.0968504 0.185433 -0.0649606 0.125197 -0.0366142 0.0708661 -0.101575 0.198425 -0.0212598 0.0425197 -0.0779528 0.154724c-2.53346,5.05512 -3.98622,10.5402 -4.35118,16.4551z"/> <path class="fil4" d="M266.285 311l6.02953 0 0.00944882 0 0 0 20.478 0 10.9524 0 9.89528 0 31.4315 0 0 0 0.00944882 0 6.02835 0c10.8579,-0.670866 20.2642,-5.00197 28.2213,-12.9579 8.68583,-8.68701 13.0512,-19.102 13.0512,-31.2449l0 -26.3752c-17.7579,-17.9965 -46.9098,-33.9035 -81.8421,-42.7087 -1.75039,-0.440551 -3.45118,-0.837402 -5.10472,-1.20827 -0.972047,4.3122 -1.87795,8.96575 -3.15827,14.0457 -9.40748,37.3228 -26.9232,68.048 -46.4315,85.3276 -2.77913,2.0315 -5.08937,3.16181 -9.10394,3.16299 -4.01575,-0.0011811 -9.9189,-2.4626 -13.5472,-6.64961l0 0c1.43268,1.95827 3.05315,3.84213 4.86142,5.65039 2.23583,2.23583 4.5874,4.18701 7.05354,5.84882l0.0885827 0.0602362 0.188976 0.125197 0.0177165 0.0129921 0.168898 0.111024 0.12874 0.0838583 0.0602362 0.0389764 0.188976 0.121654 0.0496063 0.0318898 0.13937 0.0897638 0.16063 0.0992126 0.0295276 0.0200787 0.190157 0.11811 0.080315 0.0496063 0.109843 0.0673228 0.191339 0.116929 0.0011811 0 0.191339 0.114567 0.109843 0.0661417 0.0814961 0.0484252 0.19252 0.113386 0.0307087 0.0177165 0.161811 0.0944882 0.142913 0.0814961 0.0507874 0.0283465 0.193701 0.109843 0.0614173 0.0354331 0.132283 0.0732283 0.174803 0.0968504 0.0200787 0.0106299 0.194882 0.106299 0.0933071 0.0496063 0.102756 0.0555118 0.194882 0.105118 0.0106299 0.00472441 0.186614 0.0968504 0.124016 0.0661417 0.0720472 0.0366142 0.197244 0.100394 0.0437008 0.0212598 0.154724 0.0791339c5.05512,2.53346 10.5402,3.98504 16.4539,4.35z"/> </g> </svg>